<?xml version="1.0" encoding="UTF-8" standalone="no"?>
<svg id="svg2" xmlns:rdf="http://www.w3.org/1999/02/22-rdf-syntax-ns#" xmlns="http://www.w3.org/2000/svg" height="73.93" width="73.93" version="1.1" xmlns:cc="http://creativecommons.org/ns#" xmlns:xlink="http://www.w3.org/1999/xlink" viewBox="0 0 73.929688 73.929688" xmlns:dc="http://purl.org/dc/elements/1.1/">
 <g id="layer1" opacity="0.289" transform="translate(-13.035 -961.33)" display="none">
  <g id="g4713" transform="translate(-317.19 192.12)"/>
 </g>
 <g id="layer10" transform="translate(-13.035 -961.33)">
  <path id="path4166" style="color-rendering:auto;text-decoration-color:#000000;color:#000000;isolation:auto;mix-blend-mode:normal;shape-rendering:auto;solid-color:#000000;block-progression:tb;text-decoration-line:none;text-decoration-style:solid;image-rendering:auto;white-space:normal;text-indent:0;text-transform:none" d="m40.582 965.4-1.7676 0.32812-25 19-0.7793 1.7988 3 29 1.2832 1.664 37 14 1.7773-0.1816 30-19 0.86914-2.1738-3.9844-15.941-2.9902-15.941-1.4082-1.5527-38-11zm-0.70312 4.5449 19.797 18.898-6.1348 15.779-33.762 8.2129-2.6484-25.602 22.748-17.289zm7.4336 1.5664 28.975 8.3887 2.1582 11.51-15.375-4.8555l-15.759-15.04zm15.896 19.281 12.285 3.8789-16.811 7.7577 4.5254-11.637zm16.463 6.3555 2.6992 10.801-20.25-2.7011 17.551-8.0996zm-22.646 11.457 22.281 2.9707-22.281 14.111v-17.082zm-4 0.2597v17.561l-28.248-10.69 28.248-6.8711z" fill-rule="evenodd" fill="#442178"/>
 </g>
 <g id="layer2" stroke-linejoin="bevel" fill-opacity="0" transform="translate(-13.035 -8.9658)" stroke="#2d1650" stroke-width="6.235" display="none">
  <rect id="rect4323" height="1.2329" width="1.5533" y="110.62" x="-8.3823"/>
  <rect id="rect4375" height="1.2329" width="1.5533" y="110.84" x=".088592"/>
 </g>
</svg>