<?xml version="1.0" standalone="no"?><svg xmlns="http://www.w3.org/2000/svg" xmlns:xlink="http://www.w3.org/1999/xlink" style="isolation:isolate" viewBox="0 0 210 210" width="210" height="210"><defs><clipPath id="_clipPath_d0kJ88a46QcH7GWFnISCO2zMx72cAuDs"><rect width="210" height="210"/></clipPath></defs><g clip-path="url(#_clipPath_d0kJ88a46QcH7GWFnISCO2zMx72cAuDs)"><g id="Group"><path d=" M 20.172 89.655 L 29.55 149.212 C 29.722 150.303 30.715 151.462 31.766 151.799 L 117.957 179.445 C 119.008 179.782 120.637 179.607 121.593 179.056 L 188.129 140.641 C 189.085 140.089 189.861 138.745 189.861 137.641 L 189.861 95.453 C 189.861 94.349 189.505 92.631 189.066 91.618 L 170.656 49.1 C 170.217 48.087 168.981 47.096 167.897 46.887 L 81.825 30.322 C 80.741 30.114 79.215 30.566 78.42 31.331 L 21.302 86.293 C 20.507 87.058 20.001 88.565 20.172 89.655 Z  M 81.248 31.386 L 128.474 80.465 L 129.861 81.906 L 128.474 80.465 L 81.248 31.386 L 79.861 29.944 L 81.248 31.386 Z  M 31.803 150.708 L 97.92 134.348 L 99.861 133.868 L 97.92 134.348 L 31.803 150.708 L 29.861 151.188 L 31.803 150.708 Z  M 188.037 94.272 L 101.686 133.048 L 99.861 133.868 L 101.686 133.048 L 188.037 94.272 L 189.861 93.453 L 188.037 94.272 Z  M 128.861 83.638 L 100.861 132.135 L 99.861 133.868 L 100.861 132.135 L 128.861 83.638 L 129.861 81.906 L 128.861 83.638 Z  M 100.656 135.703 L 119.066 178.22 L 119.861 180.056 L 119.066 178.22 L 100.656 135.703 L 99.861 133.868 L 100.656 135.703 Z  M 101.857 133.999 C 139.138 136.464 169.148 138.399 187.865 139.521 C 188.967 139.587 188.967 139.584 187.865 139.513 L 101.857 133.996 C 100.756 133.925 100.755 133.927 101.857 133.999 Z  M 131.825 82.284 L 187.897 93.075 L 189.861 93.453 L 187.897 93.075 L 131.825 82.284 L 129.861 81.906 L 131.825 82.284 Z " fill-rule="evenodd" fill="none" vector-effect="scaling-stroke" stroke-width="10" stroke="rgb(68,33,120)" stroke-linejoin="miter" stroke-linecap="square" stroke-miterlimit="3"/></g></g></svg>
